<svg width="512" height="512" viewBox="0 0 512 512" xmlns="http://www.w3.org/2000/svg">
  <!-- Background -->
  <rect width="512" height="512" fill="#C0C0C0"/>
  
  <!-- Window border -->
  <rect x="32" y="32" width="448" height="448" fill="#FFFFFF" stroke="#000000" stroke-width="4"/>
  
  <!-- Title bar -->
  <rect x="32" y="32" width="448" height="32" fill="#000080"/>
  
  <!-- File icon -->
  <rect x="120" y="120" width="80" height="100" fill="#FFFFFF" stroke="#000000" stroke-width="2"/>
  <rect x="120" y="120" width="80" height="20" fill="#000080"/>
  
  <!-- File lines -->
  <rect x="130" y="150" width="60" height="4" fill="#000000"/>
  <rect x="130" y="160" width="60" height="4" fill="#000000"/>
  <rect x="130" y="170" width="40" height="4" fill="#000000"/>
  
  <!-- Folder icon -->
  <rect x="280" y="120" width="100" height="80" fill="#FFFFFF" stroke="#000000" stroke-width="2"/>
  <rect x="280" y="120" width="100" height="20" fill="#FFFF00"/>
  <rect x="280" y="140" width="100" height="60" fill="#FFFFFF"/>
  
  <!-- Search icon -->
  <circle cx="200" cy="300" r="30" fill="none" stroke="#000000" stroke-width="4"/>
  <line x1="220" y1="320" x2="240" y2="340" stroke="#000000" stroke-width="4"/>
  
  <!-- Upload arrow -->
  <polygon points="350,280 370,300 390,280 380,300 380,340 360,340 360,300" fill="#000000"/>
  
  <!-- Text -->
  <text x="256" y="420" text-anchor="middle" font-family="Arial, sans-serif" font-size="24" fill="#000000">FileOps</text>
</svg>
